<mxfile host="app.diagrams.net" modified="2024-02-12T20:07:17.090Z" agent="Mozilla/5.0 (X11; Linux x86_64) AppleWebKit/537.36 (KHTML, like Gecko) Chrome/121.0.0.0 Safari/537.36" etag="qeL_qAiu0EZ_6TdSf_Rm" version="23.1.2" type="device">
  <diagram name="StrÃ¡nka-1" id="oGJWDSqYS_0yuKso3i5s">
    <mxGraphModel dx="474" dy="759" grid="1" gridSize="10" guides="1" tooltips="1" connect="1" arrows="1" fold="1" page="1" pageScale="1" pageWidth="827" pageHeight="1169" math="0" shadow="0">
      <root>
        <mxCell id="0" />
        <mxCell id="1" parent="0" />
        <mxCell id="JY_3BecZv-f4rKiO961_-2" value="S-box(nibble)" style="swimlane;fontStyle=0;childLayout=stackLayout;horizontal=1;startSize=30;horizontalStack=0;resizeParent=1;resizeParentMax=0;resizeLast=0;collapsible=1;marginBottom=0;whiteSpace=wrap;html=1;fillColor=#fad7ac;strokeColor=#b46504;" parent="1" vertex="1">
          <mxGeometry x="274" y="330" width="140" height="270" as="geometry" />
        </mxCell>
        <mxCell id="JY_3BecZv-f4rKiO961_-3" value="1001" style="text;strokeColor=#b46504;fillColor=#fad7ac;align=left;verticalAlign=middle;spacingLeft=4;spacingRight=4;overflow=hidden;points=[[0,0.5],[1,0.5]];portConstraint=eastwest;rotatable=0;whiteSpace=wrap;html=1;" parent="JY_3BecZv-f4rKiO961_-2" vertex="1">
          <mxGeometry y="30" width="140" height="30" as="geometry" />
        </mxCell>
        <mxCell id="JY_3BecZv-f4rKiO961_-4" value="0100" style="text;strokeColor=#b46504;fillColor=#fad7ac;align=left;verticalAlign=middle;spacingLeft=4;spacingRight=4;overflow=hidden;points=[[0,0.5],[1,0.5]];portConstraint=eastwest;rotatable=0;whiteSpace=wrap;html=1;" parent="JY_3BecZv-f4rKiO961_-2" vertex="1">
          <mxGeometry y="60" width="140" height="30" as="geometry" />
        </mxCell>
        <mxCell id="JY_3BecZv-f4rKiO961_-5" value="1010" style="text;strokeColor=#b46504;fillColor=#fad7ac;align=left;verticalAlign=middle;spacingLeft=4;spacingRight=4;overflow=hidden;points=[[0,0.5],[1,0.5]];portConstraint=eastwest;rotatable=0;whiteSpace=wrap;html=1;" parent="JY_3BecZv-f4rKiO961_-2" vertex="1">
          <mxGeometry y="90" width="140" height="30" as="geometry" />
        </mxCell>
        <mxCell id="JY_3BecZv-f4rKiO961_-27" value="1011" style="text;strokeColor=#b46504;fillColor=#fad7ac;align=left;verticalAlign=middle;spacingLeft=4;spacingRight=4;overflow=hidden;points=[[0,0.5],[1,0.5]];portConstraint=eastwest;rotatable=0;whiteSpace=wrap;html=1;" parent="JY_3BecZv-f4rKiO961_-2" vertex="1">
          <mxGeometry y="120" width="140" height="30" as="geometry" />
        </mxCell>
        <mxCell id="JY_3BecZv-f4rKiO961_-26" value="1101" style="text;strokeColor=#b46504;fillColor=#fad7ac;align=left;verticalAlign=middle;spacingLeft=4;spacingRight=4;overflow=hidden;points=[[0,0.5],[1,0.5]];portConstraint=eastwest;rotatable=0;whiteSpace=wrap;html=1;" parent="JY_3BecZv-f4rKiO961_-2" vertex="1">
          <mxGeometry y="150" width="140" height="30" as="geometry" />
        </mxCell>
        <mxCell id="JY_3BecZv-f4rKiO961_-25" value="0001" style="text;strokeColor=#b46504;fillColor=#fad7ac;align=left;verticalAlign=middle;spacingLeft=4;spacingRight=4;overflow=hidden;points=[[0,0.5],[1,0.5]];portConstraint=eastwest;rotatable=0;whiteSpace=wrap;html=1;" parent="JY_3BecZv-f4rKiO961_-2" vertex="1">
          <mxGeometry y="180" width="140" height="30" as="geometry" />
        </mxCell>
        <mxCell id="JY_3BecZv-f4rKiO961_-24" value="1000" style="text;strokeColor=#b46504;fillColor=#fad7ac;align=left;verticalAlign=middle;spacingLeft=4;spacingRight=4;overflow=hidden;points=[[0,0.5],[1,0.5]];portConstraint=eastwest;rotatable=0;whiteSpace=wrap;html=1;" parent="JY_3BecZv-f4rKiO961_-2" vertex="1">
          <mxGeometry y="210" width="140" height="30" as="geometry" />
        </mxCell>
        <mxCell id="JY_3BecZv-f4rKiO961_-23" value="0101" style="text;strokeColor=#b46504;fillColor=#fad7ac;align=left;verticalAlign=middle;spacingLeft=4;spacingRight=4;overflow=hidden;points=[[0,0.5],[1,0.5]];portConstraint=eastwest;rotatable=0;whiteSpace=wrap;html=1;" parent="JY_3BecZv-f4rKiO961_-2" vertex="1">
          <mxGeometry y="240" width="140" height="30" as="geometry" />
        </mxCell>
        <mxCell id="JY_3BecZv-f4rKiO961_-6" value="nibble" style="swimlane;fontStyle=0;childLayout=stackLayout;horizontal=1;startSize=30;horizontalStack=0;resizeParent=1;resizeParentMax=0;resizeLast=0;collapsible=1;marginBottom=0;whiteSpace=wrap;html=1;fillColor=#fad7ac;strokeColor=#b46504;" parent="1" vertex="1">
          <mxGeometry x="414" y="330" width="140" height="270" as="geometry" />
        </mxCell>
        <mxCell id="JY_3BecZv-f4rKiO961_-7" value="1000" style="text;strokeColor=#b46504;fillColor=#fad7ac;align=left;verticalAlign=middle;spacingLeft=4;spacingRight=4;overflow=hidden;points=[[0,0.5],[1,0.5]];portConstraint=eastwest;rotatable=0;whiteSpace=wrap;html=1;" parent="JY_3BecZv-f4rKiO961_-6" vertex="1">
          <mxGeometry y="30" width="140" height="30" as="geometry" />
        </mxCell>
        <mxCell id="JY_3BecZv-f4rKiO961_-8" value="1001" style="text;strokeColor=#b46504;fillColor=#fad7ac;align=left;verticalAlign=middle;spacingLeft=4;spacingRight=4;overflow=hidden;points=[[0,0.5],[1,0.5]];portConstraint=eastwest;rotatable=0;whiteSpace=wrap;html=1;" parent="JY_3BecZv-f4rKiO961_-6" vertex="1">
          <mxGeometry y="60" width="140" height="30" as="geometry" />
        </mxCell>
        <mxCell id="JY_3BecZv-f4rKiO961_-32" value="1010" style="text;strokeColor=#b46504;fillColor=#fad7ac;align=left;verticalAlign=middle;spacingLeft=4;spacingRight=4;overflow=hidden;points=[[0,0.5],[1,0.5]];portConstraint=eastwest;rotatable=0;whiteSpace=wrap;html=1;" parent="JY_3BecZv-f4rKiO961_-6" vertex="1">
          <mxGeometry y="90" width="140" height="30" as="geometry" />
        </mxCell>
        <mxCell id="JY_3BecZv-f4rKiO961_-31" value="1011" style="text;strokeColor=#b46504;fillColor=#fad7ac;align=left;verticalAlign=middle;spacingLeft=4;spacingRight=4;overflow=hidden;points=[[0,0.5],[1,0.5]];portConstraint=eastwest;rotatable=0;whiteSpace=wrap;html=1;" parent="JY_3BecZv-f4rKiO961_-6" vertex="1">
          <mxGeometry y="120" width="140" height="30" as="geometry" />
        </mxCell>
        <mxCell id="JY_3BecZv-f4rKiO961_-30" value="1100" style="text;strokeColor=#b46504;fillColor=#fad7ac;align=left;verticalAlign=middle;spacingLeft=4;spacingRight=4;overflow=hidden;points=[[0,0.5],[1,0.5]];portConstraint=eastwest;rotatable=0;whiteSpace=wrap;html=1;" parent="JY_3BecZv-f4rKiO961_-6" vertex="1">
          <mxGeometry y="150" width="140" height="30" as="geometry" />
        </mxCell>
        <mxCell id="JY_3BecZv-f4rKiO961_-29" value="1101" style="text;strokeColor=#b46504;fillColor=#fad7ac;align=left;verticalAlign=middle;spacingLeft=4;spacingRight=4;overflow=hidden;points=[[0,0.5],[1,0.5]];portConstraint=eastwest;rotatable=0;whiteSpace=wrap;html=1;" parent="JY_3BecZv-f4rKiO961_-6" vertex="1">
          <mxGeometry y="180" width="140" height="30" as="geometry" />
        </mxCell>
        <mxCell id="JY_3BecZv-f4rKiO961_-28" value="1110" style="text;strokeColor=#b46504;fillColor=#fad7ac;align=left;verticalAlign=middle;spacingLeft=4;spacingRight=4;overflow=hidden;points=[[0,0.5],[1,0.5]];portConstraint=eastwest;rotatable=0;whiteSpace=wrap;html=1;" parent="JY_3BecZv-f4rKiO961_-6" vertex="1">
          <mxGeometry y="210" width="140" height="30" as="geometry" />
        </mxCell>
        <mxCell id="JY_3BecZv-f4rKiO961_-9" value="1111" style="text;strokeColor=#b46504;fillColor=#fad7ac;align=left;verticalAlign=middle;spacingLeft=4;spacingRight=4;overflow=hidden;points=[[0,0.5],[1,0.5]];portConstraint=eastwest;rotatable=0;whiteSpace=wrap;html=1;" parent="JY_3BecZv-f4rKiO961_-6" vertex="1">
          <mxGeometry y="240" width="140" height="30" as="geometry" />
        </mxCell>
        <mxCell id="JY_3BecZv-f4rKiO961_-10" value="nibble" style="swimlane;fontStyle=0;childLayout=stackLayout;horizontal=1;startSize=30;horizontalStack=0;resizeParent=1;resizeParentMax=0;resizeLast=0;collapsible=1;marginBottom=0;whiteSpace=wrap;html=1;fillColor=#fad7ac;strokeColor=#b46504;" parent="1" vertex="1">
          <mxGeometry x="134" y="330" width="140" height="270" as="geometry" />
        </mxCell>
        <mxCell id="JY_3BecZv-f4rKiO961_-11" value="0000" style="text;strokeColor=#b46504;fillColor=#fad7ac;align=left;verticalAlign=middle;spacingLeft=4;spacingRight=4;overflow=hidden;points=[[0,0.5],[1,0.5]];portConstraint=eastwest;rotatable=0;whiteSpace=wrap;html=1;" parent="JY_3BecZv-f4rKiO961_-10" vertex="1">
          <mxGeometry y="30" width="140" height="30" as="geometry" />
        </mxCell>
        <mxCell id="JY_3BecZv-f4rKiO961_-12" value="0001" style="text;strokeColor=#b46504;fillColor=#fad7ac;align=left;verticalAlign=middle;spacingLeft=4;spacingRight=4;overflow=hidden;points=[[0,0.5],[1,0.5]];portConstraint=eastwest;rotatable=0;whiteSpace=wrap;html=1;" parent="JY_3BecZv-f4rKiO961_-10" vertex="1">
          <mxGeometry y="60" width="140" height="30" as="geometry" />
        </mxCell>
        <mxCell id="JY_3BecZv-f4rKiO961_-13" value="0010" style="text;strokeColor=#b46504;fillColor=#fad7ac;align=left;verticalAlign=middle;spacingLeft=4;spacingRight=4;overflow=hidden;points=[[0,0.5],[1,0.5]];portConstraint=eastwest;rotatable=0;whiteSpace=wrap;html=1;" parent="JY_3BecZv-f4rKiO961_-10" vertex="1">
          <mxGeometry y="90" width="140" height="30" as="geometry" />
        </mxCell>
        <mxCell id="JY_3BecZv-f4rKiO961_-18" value="0011" style="text;strokeColor=#b46504;fillColor=#fad7ac;align=left;verticalAlign=middle;spacingLeft=4;spacingRight=4;overflow=hidden;points=[[0,0.5],[1,0.5]];portConstraint=eastwest;rotatable=0;whiteSpace=wrap;html=1;" parent="JY_3BecZv-f4rKiO961_-10" vertex="1">
          <mxGeometry y="120" width="140" height="30" as="geometry" />
        </mxCell>
        <mxCell id="JY_3BecZv-f4rKiO961_-19" value="0100" style="text;strokeColor=#b46504;fillColor=#fad7ac;align=left;verticalAlign=middle;spacingLeft=4;spacingRight=4;overflow=hidden;points=[[0,0.5],[1,0.5]];portConstraint=eastwest;rotatable=0;whiteSpace=wrap;html=1;" parent="JY_3BecZv-f4rKiO961_-10" vertex="1">
          <mxGeometry y="150" width="140" height="30" as="geometry" />
        </mxCell>
        <mxCell id="JY_3BecZv-f4rKiO961_-20" value="0101" style="text;strokeColor=#b46504;fillColor=#fad7ac;align=left;verticalAlign=middle;spacingLeft=4;spacingRight=4;overflow=hidden;points=[[0,0.5],[1,0.5]];portConstraint=eastwest;rotatable=0;whiteSpace=wrap;html=1;" parent="JY_3BecZv-f4rKiO961_-10" vertex="1">
          <mxGeometry y="180" width="140" height="30" as="geometry" />
        </mxCell>
        <mxCell id="JY_3BecZv-f4rKiO961_-21" value="0110" style="text;strokeColor=#b46504;fillColor=#fad7ac;align=left;verticalAlign=middle;spacingLeft=4;spacingRight=4;overflow=hidden;points=[[0,0.5],[1,0.5]];portConstraint=eastwest;rotatable=0;whiteSpace=wrap;html=1;" parent="JY_3BecZv-f4rKiO961_-10" vertex="1">
          <mxGeometry y="210" width="140" height="30" as="geometry" />
        </mxCell>
        <mxCell id="JY_3BecZv-f4rKiO961_-22" value="0111" style="text;strokeColor=#b46504;fillColor=#fad7ac;align=left;verticalAlign=middle;spacingLeft=4;spacingRight=4;overflow=hidden;points=[[0,0.5],[1,0.5]];portConstraint=eastwest;rotatable=0;whiteSpace=wrap;html=1;" parent="JY_3BecZv-f4rKiO961_-10" vertex="1">
          <mxGeometry y="240" width="140" height="30" as="geometry" />
        </mxCell>
        <mxCell id="JY_3BecZv-f4rKiO961_-14" value="S-box(nibble)" style="swimlane;fontStyle=0;childLayout=stackLayout;horizontal=1;startSize=30;horizontalStack=0;resizeParent=1;resizeParentMax=0;resizeLast=0;collapsible=1;marginBottom=0;whiteSpace=wrap;html=1;fillColor=#fad7ac;strokeColor=#b46504;" parent="1" vertex="1">
          <mxGeometry x="554" y="330" width="140" height="270" as="geometry" />
        </mxCell>
        <mxCell id="JY_3BecZv-f4rKiO961_-15" value="0110" style="text;strokeColor=#b46504;fillColor=#fad7ac;align=left;verticalAlign=middle;spacingLeft=4;spacingRight=4;overflow=hidden;points=[[0,0.5],[1,0.5]];portConstraint=eastwest;rotatable=0;whiteSpace=wrap;html=1;" parent="JY_3BecZv-f4rKiO961_-14" vertex="1">
          <mxGeometry y="30" width="140" height="30" as="geometry" />
        </mxCell>
        <mxCell id="JY_3BecZv-f4rKiO961_-16" value="0010" style="text;strokeColor=#b46504;fillColor=#fad7ac;align=left;verticalAlign=middle;spacingLeft=4;spacingRight=4;overflow=hidden;points=[[0,0.5],[1,0.5]];portConstraint=eastwest;rotatable=0;whiteSpace=wrap;html=1;" parent="JY_3BecZv-f4rKiO961_-14" vertex="1">
          <mxGeometry y="60" width="140" height="30" as="geometry" />
        </mxCell>
        <mxCell id="JY_3BecZv-f4rKiO961_-17" value="0000" style="text;strokeColor=#b46504;fillColor=#fad7ac;align=left;verticalAlign=middle;spacingLeft=4;spacingRight=4;overflow=hidden;points=[[0,0.5],[1,0.5]];portConstraint=eastwest;rotatable=0;whiteSpace=wrap;html=1;" parent="JY_3BecZv-f4rKiO961_-14" vertex="1">
          <mxGeometry y="90" width="140" height="30" as="geometry" />
        </mxCell>
        <mxCell id="JY_3BecZv-f4rKiO961_-37" value="0011" style="text;strokeColor=#b46504;fillColor=#fad7ac;align=left;verticalAlign=middle;spacingLeft=4;spacingRight=4;overflow=hidden;points=[[0,0.5],[1,0.5]];portConstraint=eastwest;rotatable=0;whiteSpace=wrap;html=1;" parent="JY_3BecZv-f4rKiO961_-14" vertex="1">
          <mxGeometry y="120" width="140" height="30" as="geometry" />
        </mxCell>
        <mxCell id="JY_3BecZv-f4rKiO961_-36" value="1100" style="text;strokeColor=#b46504;fillColor=#fad7ac;align=left;verticalAlign=middle;spacingLeft=4;spacingRight=4;overflow=hidden;points=[[0,0.5],[1,0.5]];portConstraint=eastwest;rotatable=0;whiteSpace=wrap;html=1;" parent="JY_3BecZv-f4rKiO961_-14" vertex="1">
          <mxGeometry y="150" width="140" height="30" as="geometry" />
        </mxCell>
        <mxCell id="JY_3BecZv-f4rKiO961_-35" value="1110" style="text;strokeColor=#b46504;fillColor=#fad7ac;align=left;verticalAlign=middle;spacingLeft=4;spacingRight=4;overflow=hidden;points=[[0,0.5],[1,0.5]];portConstraint=eastwest;rotatable=0;whiteSpace=wrap;html=1;" parent="JY_3BecZv-f4rKiO961_-14" vertex="1">
          <mxGeometry y="180" width="140" height="30" as="geometry" />
        </mxCell>
        <mxCell id="JY_3BecZv-f4rKiO961_-34" value="1111" style="text;strokeColor=#b46504;fillColor=#fad7ac;align=left;verticalAlign=middle;spacingLeft=4;spacingRight=4;overflow=hidden;points=[[0,0.5],[1,0.5]];portConstraint=eastwest;rotatable=0;whiteSpace=wrap;html=1;" parent="JY_3BecZv-f4rKiO961_-14" vertex="1">
          <mxGeometry y="210" width="140" height="30" as="geometry" />
        </mxCell>
        <mxCell id="JY_3BecZv-f4rKiO961_-33" value="0111" style="text;strokeColor=#b46504;fillColor=#fad7ac;align=left;verticalAlign=middle;spacingLeft=4;spacingRight=4;overflow=hidden;points=[[0,0.5],[1,0.5]];portConstraint=eastwest;rotatable=0;whiteSpace=wrap;html=1;" parent="JY_3BecZv-f4rKiO961_-14" vertex="1">
          <mxGeometry y="240" width="140" height="30" as="geometry" />
        </mxCell>
        <mxCell id="JY_3BecZv-f4rKiO961_-38" value="S-box" style="text;html=1;align=center;verticalAlign=middle;whiteSpace=wrap;rounded=0;" parent="1" vertex="1">
          <mxGeometry x="384" y="300" width="60" height="30" as="geometry" />
        </mxCell>
      </root>
    </mxGraphModel>
  </diagram>
</mxfile>
